<svg width="630" height="742" viewBox="0 0 630 742" fill="none" xmlns="http://www.w3.org/2000/svg">
<path d="M587.777 507.425C583.291 508.969 584.78 515.225 579.378 517.304C560.423 524.608 531.561 523.73 511.613 530.157C507.471 519.287 498.557 511.22 487.886 507.12C474.982 502.142 470.802 502.371 457.402 495.62C446.407 490.089 428.387 490.223 418.022 497.088C415.063 499.053 412.849 503.229 410.177 504.507C393.78 512.345 386.392 505.975 372.42 525.905C367.094 533.495 366.292 540.933 361.234 547.15L230.057 566.621L215.588 547.512C223.242 579.609 225.151 616.435 202.207 642.849L352.167 609.055L356.824 619.963C324.946 627.458 293.336 636.498 261.4 643.84C229.465 651.183 172.429 668.499 143.07 659.021C113.712 649.542 96.7807 614.833 103.748 585.521C109.971 559.374 154.6 561.949 175.235 561.091L183.042 593.245L143.013 600.911C142.689 558.802 108.177 578.732 122.226 615.005C138.966 658.22 197.32 652.708 202.188 609.512C206.75 568.967 186.745 516.464 151.259 494.456C126.272 478.971 92.8102 482.384 70.4766 461.711C92.7147 466.384 115.392 470.217 138.165 471.304C278.294 477.998 421.993 461.559 559.545 437.281C577.125 440.371 591.136 452.996 599.001 468.596C611.943 494.323 612.286 538.816 593.503 561.796C579.779 578.598 553.303 585.464 532.42 585.654V572.286C551.757 573.43 571.991 568.109 581.726 550.03C582.737 548.142 587.796 535.917 587.796 535.116V507.463L587.777 507.425Z" fill="white" fill-opacity="0.07"/>
<path d="M230.82 452.12V308.134C230.82 306.074 225.647 292.858 224.216 289.94C207.036 255.211 165.748 265.453 152.996 299.018C151.679 302.489 146.831 319.004 146.831 321.464V454.008L118.179 452.12L114.533 285.096C102.278 279.966 103.977 276.476 105.141 263.622L260.408 194.68V452.12H230.801H230.82Z" fill="white" fill-opacity="0.07"/>
<path d="M164.008 127.91L218.448 80.2702L450.966 79.9079C453.696 79.0688 454.078 76.6848 455.108 74.5107C463.221 57.1179 466.524 28.4922 473.224 9.669L304.901 77.0472C300.873 78.2868 294.402 78.4775 290.374 77.8673C287.358 77.4096 284.667 77.7338 288.065 74.5298L483.799 0C489.468 0.0762844 504.739 14.5512 510.79 18.8613C528.237 31.2766 578.268 70.6202 593.978 76.8755C600.105 79.3166 609.936 77.1617 612.284 78.6302C616.827 81.4718 619.957 108.457 629.883 108L629.75 129.798H540.034V108.801L608.752 106.894C609.401 106.283 607.225 90.6068 602.11 91.6176L529.859 89.8249L526.691 78.3059H579.184C579.623 78.3059 581.742 81.9295 582.067 79.2404V76.4369L503.803 24.9259L511.439 91.6747L498.153 91.5603L495.061 72.5465L467.688 72.7753L462.439 89.844L421.131 90.1491L393.071 116.448L431.248 114.56V127.91H164.008ZM494.24 59.2348L491.491 28.6257L477.137 26.9474L471.334 61.1801L494.221 59.2539L494.24 59.2348ZM265.177 89.7676H231.772C231.448 89.7676 228.432 85.6864 227 88.8141L247.024 110.727L265.158 89.7867L265.177 89.7676ZM242.271 116.467C235.571 107.504 225.511 100.238 221.235 89.7676L192.641 116.467H242.271ZM301.445 116.467C296.654 111.89 279.475 88.9667 273.996 89.9202L253.724 116.467H301.445ZM328.169 89.7676H288.083L308.126 112.615L328.169 89.7676ZM373.982 116.448C367.797 110.269 352.221 89.9965 344.395 89.5579C333.171 88.9285 322.386 109.201 314.807 116.429H373.982V116.448ZM406.433 89.7676H360.62C363.655 93.639 381.14 113.053 384.214 112.519L406.433 89.7676Z" fill="white" fill-opacity="0.07"/>
<path d="M456.066 187.031H469.448L470.402 221.378L501.096 196.738C507.186 189.072 498.634 184.857 517.15 187.031V425.42L503.788 427.327V381.556L470.478 411.975V433.125L456.066 436.863V187.031ZM503.788 259.501V208.009L477.102 231.848L503.788 259.501ZM471.337 245.198C472.712 263.106 471.337 284.103 471.337 302.411C471.337 302.736 467.252 305.749 470.364 307.16L503.654 277.352C504.494 272.432 475.117 245.866 470.364 240.43C467.214 241.899 471.299 244.721 471.318 245.198H471.337ZM503.788 349.136V291.922L475.289 317.935C474.926 320.014 499.226 346.485 503.788 349.136ZM473.208 330.064H469.428C474.334 339.867 469.81 351.901 469.81 361.513C469.81 372.345 474.391 385.924 469.428 396.775C472.712 397.633 473.246 395.459 475.174 393.953C478.82 391.092 503.311 368.912 503.654 366.986L473.208 330.064Z" fill="white" fill-opacity="0.07"/>
<path d="M430.792 517.438C525.777 504.584 534.328 641.896 451.083 652.137C358.618 663.504 348.997 528.499 430.792 517.438ZM428.845 538.378C381.677 547.189 383.013 625.075 434.323 631.159C510.964 640.256 505.924 523.98 428.845 538.378Z" fill="white" fill-opacity="0.07"/>
<path d="M95.3086 387.258L96.225 429.347L70.4935 440.676C68.7755 427.154 70.3026 398.49 52.3785 396.679C33.9007 394.81 18.6871 410.772 16.931 428.184C12.0252 476.968 53.1038 509.694 97.103 518.009C116.707 521.728 138.239 518.047 153.949 531.664C155.285 532.827 157.576 531.588 156.373 536.031C114.359 531.187 69.6918 536.832 35.237 507.367C6.12692 482.499 -16.0158 427.212 15.0604 395.782C39.4365 371.143 66.084 386.304 95.3086 387.258Z" fill="white" fill-opacity="0.07"/>
<path d="M488.513 654.273V742L440.085 707.806L396.907 742L394.998 656.2C404.733 660.224 413.991 666.098 424.795 667.413C435.6 668.729 451.519 668.729 461.789 663.809C461.083 679.39 461.025 696.325 473.261 707.673V659.995L488.532 654.273H488.513Z" fill="white" fill-opacity="0.07"/>
<path d="M261.363 154.609V182.262L97.2012 253.779V227.08L261.363 154.609Z" fill="white" fill-opacity="0.07"/>
<path d="M522.875 103.117V172.727L520.012 175.587H448.43V103.117H522.875ZM494.242 122.188H459.883L460.761 158.5C471.832 163.859 483.572 155.048 494.242 160.33V122.188Z" fill="white" fill-opacity="0.07"/>
<path d="M404.22 227.386C405.041 228.682 404.889 242.471 404.545 245.236C404.201 248.001 405.576 248.555 401.739 248.021L282.493 187.889C275.258 182.797 279.687 170.134 278.58 162.258L404.24 227.405L404.22 227.386Z" fill="white" fill-opacity="0.07"/>
<path d="M299.539 284.293L311.088 289.347L311.126 445.501L309.866 448.514L299.539 450.212V284.293Z" fill="white" fill-opacity="0.07"/>
<path d="M335.805 299.551L347.372 304.528L347.258 446.379L335.805 448.305V299.551Z" fill="white" fill-opacity="0.07"/>
<path d="M404.505 280.461L277.643 213.808L276.631 204.215C320.21 224.468 363.427 247.335 404.219 272.203L404.524 280.461H404.505Z" fill="white" fill-opacity="0.07"/>
<path d="M372.072 316.714C372.95 315.741 378.772 318.468 379.708 319.574C381.407 321.558 383.335 341.316 383.602 346.198C385.301 377.627 382.361 410.811 383.296 442.373L372.072 444.49V316.714Z" fill="white" fill-opacity="0.07"/>
<path d="M173.555 327.202C174.013 324.399 179.759 312.975 182.087 310.935C182.603 310.477 195.487 302.238 194.571 308.112C187.623 311.946 183.92 321.615 183.099 329.11L183.213 451.031L173.555 454.025V327.202Z" fill="white" fill-opacity="0.07"/>
<path d="M608.773 137.445V154.609C608.067 155.563 606.31 152.702 605.91 152.702H570.596V137.445H608.773Z" fill="white" fill-opacity="0.07"/>
<path d="M434.57 551.749C488.591 542.995 486.816 627.213 434.551 617.582C399.791 611.174 400.154 557.317 434.57 551.749Z" fill="white" fill-opacity="0.07"/>
</svg>
