<svg width="140" height="48" viewBox="0 0 140 48" fill="none" xmlns="http://www.w3.org/2000/svg">
<mask id="mask0_338_471" style="mask-type:luminance" maskUnits="userSpaceOnUse" x="0" y="0" width="140" height="48">
<path d="M140 0H0V48H140V0Z" fill="white"/>
</mask>
<g mask="url(#mask0_338_471)">
<path d="M48.3636 23.9359C48.3636 37.2122 37.5945 47.8717 24.1818 47.8717C10.7692 47.8717 0 37.2122 0 23.9359C0 10.6597 10.7692 0 24.1818 0C37.5945 0 48.3636 10.6597 48.3636 23.9359Z" fill="#EA262A"/>
<path d="M50.4199 12.5978C51.3991 12.5978 52.2802 12.7916 52.9654 13.2762C53.6508 13.7607 54.1402 14.439 54.532 15.3112C54.8257 16.0865 54.9235 16.8617 54.8257 17.7339C54.7276 18.7029 54.4339 19.5751 53.8465 20.4472C53.2591 21.2225 52.5739 21.9008 51.7906 22.2884C50.9095 22.6761 49.9306 22.8699 48.9514 22.8699H48.7558L48.364 24.4204H45.5248L45.9166 22.8699C45.0352 22.8699 44.2523 22.6761 43.469 22.2884C42.7838 21.804 42.2942 21.2225 41.9026 20.4472C41.5109 19.672 41.413 18.7999 41.5109 17.9277C41.6089 16.9586 41.9026 15.9895 42.4901 15.2143C43.0774 14.439 43.7627 13.7607 44.6437 13.2762C45.5248 12.7916 46.406 12.5978 47.4829 12.5978H47.6788L48.0703 11.0473H50.8117L50.4199 12.5978ZM44.35 18.7999C44.4479 19.2844 44.5459 19.672 44.8396 19.9627C45.1333 20.2534 45.5248 20.4472 46.0144 20.4472H46.3081L47.3851 14.9236C46.6997 14.9236 46.1122 15.1174 45.5248 15.6019C45.0352 15.9895 44.6437 16.571 44.4479 17.3463C44.35 17.8307 44.2523 18.3153 44.35 18.7999ZM50.1262 14.9236L49.0495 20.4472C49.6369 20.4472 50.2243 20.2534 50.7136 19.9627C51.2032 19.672 51.4969 19.1874 51.7906 18.6061C52.0843 18.0246 52.0843 17.3463 52.0843 16.6679C52.0843 16.1833 51.8884 15.6988 51.5947 15.4081C51.301 15.1174 50.9095 14.9236 50.4199 14.8266L50.1262 14.9236Z" fill="white"/>
<path d="M60.5039 24.0328C59.231 24.0328 58.154 23.5483 57.3709 22.773C56.5877 21.9978 56.0981 20.8349 56.0003 19.4782C55.9025 18.7999 56.0003 18.0246 56.1961 17.0556C56.3917 16.0865 56.6855 15.3112 57.0773 14.536C57.4688 13.7607 58.0562 13.0824 58.6435 12.5979C59.7206 11.7257 60.8953 11.3381 62.3638 11.3381C63.2449 11.3381 63.9304 11.5319 64.6156 11.9195C65.3008 12.3071 65.7904 12.7917 66.1822 13.5669C66.5737 14.2453 66.7696 15.0205 66.8674 15.9896C66.8674 16.668 66.8674 17.3463 66.7696 18.1216C66.6715 18.8968 66.3778 19.6721 66.0841 20.4473C65.7904 21.2225 65.3008 21.804 64.8115 22.3854C64.3219 22.9668 63.6367 23.3545 62.9513 23.7421C62.1682 23.9359 61.3849 24.1298 60.5039 24.0328ZM63.8323 15.8927C63.7345 14.4391 63.2449 13.7607 62.1682 13.6639C61.3849 13.6639 60.6995 13.9545 60.112 14.6329C59.6227 15.3112 59.231 16.2803 59.0354 17.637C58.9373 18.4123 58.8394 19.0906 58.9373 19.5751C59.0354 21.0287 59.5247 21.804 60.6016 21.804C61.2868 21.804 61.8745 21.6102 62.3638 21.0287C62.8534 20.4473 63.2449 19.7689 63.4408 18.703C63.7345 17.637 63.8323 16.7648 63.8323 15.8927Z" fill="white"/>
<path d="M70.8814 19.6721L70.0981 23.9359H67.1611L69.3151 11.435H73.8183C75.1891 11.435 76.266 11.8226 77.1472 12.5979C77.9305 13.3731 78.3219 14.3422 78.2241 15.602C78.1261 16.4741 77.9305 17.1525 77.4408 17.734C76.9512 18.3154 76.3639 18.7999 75.5806 19.1876C74.7975 19.4782 73.9164 19.6721 73.0354 19.6721H70.8814ZM71.2729 17.3463H73.0354C73.8183 17.3463 74.3079 17.0556 74.6995 16.668C75.0912 16.1834 75.2868 15.602 75.1891 14.9237C75.1891 14.536 74.9931 14.3422 74.7975 14.1484C74.6016 13.9545 74.3079 13.8577 73.9164 13.7608H71.8603L71.2729 17.3463Z" fill="white"/>
<path d="M83.707 18.9938H82.2382L81.3571 23.9359H78.4199L80.574 11.435H83.5109L82.6297 16.1834H83.707L86.84 11.435H90.5599L86.1542 17.2494L88.6996 23.8391H85.3712L83.707 18.9938Z" fill="white"/>
<path d="M102.112 11.435L99.8606 23.9359H96.923L98.6852 13.8577H95.9445L94.77 18.9938C94.3777 20.738 93.7908 21.9978 93.0069 22.7731C92.2239 23.5483 91.2447 23.9359 89.972 23.9359H88.8955L89.287 21.6101H89.5805C90.2662 21.5133 90.8531 21.2226 91.2447 20.6411C91.7343 20.0597 92.0285 19.0906 92.2239 17.734L92.42 16.8618L93.4965 11.6288H102.112V11.435Z" fill="white"/>
<path d="M111.119 11.435H114.154L112 23.9359H109.063L110.434 16.2803L104.756 23.9359H101.721L103.874 11.435H106.811L105.441 19.0906L111.119 11.435Z" fill="white"/>
<path d="M123.455 12.5978C124.434 12.5978 125.315 12.7916 126 13.2762C126.685 13.7607 127.175 14.439 127.566 15.3112C127.861 16.0865 127.959 16.8617 127.861 17.7339C127.763 18.7029 127.469 19.5751 126.882 20.4472C126.294 21.2225 125.609 21.9008 124.826 22.2884C123.945 22.6761 123.064 22.8699 122.084 22.8699H121.889L121.497 24.4204H118.658L119.049 22.8699C118.168 22.8699 117.385 22.6761 116.601 22.2884C115.916 21.804 115.427 21.2225 115.035 20.4472C114.644 19.672 114.546 18.7999 114.644 17.9277C114.742 16.9586 115.035 15.9895 115.623 15.2143C116.21 14.439 116.896 13.7607 117.777 13.2762C118.658 12.7916 119.539 12.5978 120.616 12.5978H120.812L121.203 11.0473H123.945L123.455 12.5978ZM117.385 18.7999C117.483 19.2844 117.581 19.672 117.875 19.9627C118.168 20.2534 118.56 20.4472 119.049 20.4472H119.343L120.42 14.9236C119.734 14.9236 119.148 15.1174 118.56 15.6019C118.07 15.9895 117.679 16.571 117.483 17.3463C117.385 17.8307 117.287 18.3153 117.385 18.7999ZM123.161 14.9236L122.084 20.4472C122.671 20.4472 123.259 20.2534 123.749 19.9627C124.238 19.672 124.532 19.1874 124.826 18.6061C125.119 18.0246 125.119 17.3463 125.119 16.6679C125.119 16.1833 124.923 15.6988 124.63 15.4081C124.336 15.1174 123.945 14.9236 123.455 14.8266L123.161 14.9236Z" fill="white"/>
<path d="M139.707 13.8576H136.084L134.224 23.9359H131.287L133.049 13.8576H129.427L129.819 11.5318H140L139.707 13.8576Z" fill="white"/>
<path d="M68.0419 32.9483C67.6504 33.142 67.0631 33.2391 66.2798 33.2391C64.5176 33.2391 63.3428 32.173 63.3428 30.4287C63.3428 28.9749 64.028 27.8121 65.0069 27.1338C65.6924 26.6493 66.4757 26.4555 67.4546 26.4555C68.1398 26.4555 68.7272 26.6493 68.9231 26.7462L68.5316 27.9092C68.3356 27.8121 67.9442 27.7152 67.3567 27.7152C66.7694 27.7152 66.2798 27.9092 65.888 28.1998C65.3006 28.6842 65.0069 29.3627 65.0069 30.3317C65.0069 31.3977 65.5943 32.0759 66.7694 32.0759C67.2587 32.0759 67.6504 31.9791 68.0419 31.8823V32.9483Z" fill="white"/>
<path d="M74.9928 30.4287H72.6432L72.3495 31.9791H74.9928L74.7972 33.142H70.7832L72.0558 26.5524H75.972L75.6783 27.8121H73.1327L72.8391 29.1688H75.1887L74.9928 30.4287Z" fill="white"/>
<path d="M79.007 26.7462C79.3991 26.6493 80.0841 26.5524 80.7691 26.5524C81.3567 26.5524 82.0417 26.6493 82.5313 27.0369C83.0209 27.3277 83.2171 27.8121 83.2171 28.3935C83.2171 29.2658 82.8256 29.8473 82.3359 30.2348C81.7483 30.6223 81.0633 30.8162 80.1822 30.8162C79.986 30.8162 79.7906 30.8162 79.5945 30.8162L79.1049 33.142H77.7344L79.007 26.7462ZM79.7906 29.6534C79.986 29.6534 80.0841 29.6534 80.3775 29.6534C81.2587 29.6534 81.7483 29.0719 81.7483 28.4905C81.7483 27.8121 81.2587 27.6184 80.7691 27.6184C80.4756 27.6184 80.2802 27.6184 80.1822 27.7152L79.7906 29.6534Z" fill="white"/>
<path d="M86.4481 26.7462C86.9369 26.6493 87.5246 26.5524 88.2095 26.5524C88.8953 26.5524 89.3849 26.6493 89.8745 26.94C90.3633 27.1338 90.6576 27.6184 90.6576 28.1027C90.6576 28.9752 90.0699 29.4595 89.2868 29.6534C89.9718 29.8473 90.3633 30.3317 90.3633 31.107C90.3633 31.7852 89.9718 32.3669 89.4822 32.6576C88.8953 33.0452 88.1123 33.142 86.9369 33.142C86.1538 33.142 85.5669 33.142 85.2727 33.0451L86.4481 26.7462ZM86.8396 32.0762C87.035 32.0762 87.133 32.0762 87.4265 32.0762C88.2095 32.0762 88.8953 31.7852 88.8953 31.0101C88.8953 30.3317 88.3076 30.138 87.7199 30.138H87.133L86.8396 32.0762ZM87.4265 29.2658H87.9161C88.6991 29.2658 89.1888 28.9752 89.1888 28.3935C89.1888 27.9091 88.7972 27.7152 88.2095 27.7152C87.9161 27.7152 87.7199 27.7152 87.6226 27.7152L87.4265 29.2658Z" fill="white"/>
<path d="M95.552 26.6493L95.1604 28.6842C94.9651 29.7502 94.7689 30.6223 94.4755 31.5916C94.9651 30.7195 95.4547 30.0409 95.9443 29.3627L97.7065 26.7462H99.2726L98 33.3358H96.6292L97.0208 31.3009C97.2169 30.3317 97.3142 29.5566 97.6085 28.6842C97.2169 29.4595 96.7273 30.2349 96.1396 30.9131L94.4755 33.2391H92.8113L94.0839 26.6493H95.552Z" fill="white"/>
<path d="M106.322 32.9483C105.93 33.142 105.343 33.2391 104.56 33.2391C102.797 33.2391 101.622 32.173 101.622 30.4287C101.622 28.9749 102.308 27.8121 103.287 27.1338C103.972 26.6493 104.755 26.4555 105.734 26.4555C106.42 26.4555 107.007 26.6493 107.203 26.7462L106.812 27.9092C106.615 27.8121 106.224 27.7152 105.636 27.7152C105.049 27.7152 104.56 27.9092 104.168 28.1998C103.58 28.6842 103.287 29.3627 103.287 30.3317C103.287 31.3977 103.874 32.0759 105.049 32.0759C105.539 32.0759 105.93 31.9791 106.322 31.8823V32.9483Z" fill="white"/>
<path d="M24.5734 18.7999L28.0979 17.0556C28.2935 16.9587 28.5873 17.0556 28.7831 17.2494C28.979 17.4432 28.7831 17.734 28.5873 17.9278L25.0628 19.6721C24.8671 19.769 24.5734 19.6721 24.3775 19.4782C24.1817 19.2844 24.2796 18.9938 24.5734 18.7999ZM18.3076 16.2803C18.3076 15.9897 18.5034 15.6989 18.895 15.6989C19.1887 15.6989 19.4824 15.8927 19.4824 16.2803L19.7761 20.6411L23.4964 21.0288C23.7901 21.0288 24.0838 21.3195 23.9859 21.7071C23.9859 21.9979 23.6922 22.1917 23.3985 22.1917H23.3006L18.6013 21.6102L18.3076 16.2803Z" fill="white"/>
<path d="M35.0488 25.4866V26.6494C34.657 26.5525 34.2655 26.5525 33.874 26.5525V25.8742L35.0488 25.4866Z" fill="white"/>
<path d="M37.9863 28.3937V21.4165H39.4548V33.1421C39.4548 33.7235 39.9444 34.2082 40.5318 34.2082H46.6016C48.266 34.2082 50.0282 34.305 51.6926 34.4989L58.6436 35.1772C58.7417 35.1772 58.7417 35.371 58.6436 35.371H39.4548H38.4759H37.9863C38.7696 34.4021 39.2589 33.2392 39.2589 31.8825C39.357 30.5257 38.8674 29.3629 37.9863 28.3937Z" fill="white"/>
<path d="M35.0493 26.5526C35.9304 26.7464 36.7137 27.134 37.3989 27.7154V7.46196H35.0493V8.14033H31.525C31.231 8.14033 31.0354 8.33414 31.0354 8.62489C31.0354 8.91557 31.231 9.01243 31.525 9.01243H35.0493V23.6453L32.4061 24.6144L32.2102 23.9361C31.231 20.5443 30.1543 17.2495 28.6858 14.0516L28.0984 12.7918C27.5108 11.3382 26.1403 10.3692 24.5738 10.2722L15.5668 9.40013C15.2731 9.40013 15.0773 9.59394 15.0773 9.78775C15.0773 10.0784 15.2731 10.2722 15.4689 10.2722L17.2311 10.466L16.8395 11.3382C15.1752 14.6331 14.392 18.3155 14.6856 21.9979L10.378 21.6103C9.69263 21.5134 9.00734 21.9979 8.71366 22.5794L7.83253 24.8082C7.14722 26.4556 6.85352 28.2 6.85352 29.9443V33.1421H7.83253C7.83253 32.9485 7.83253 32.7546 7.83253 32.5607C7.83253 29.8475 9.98639 27.7154 12.7276 27.7154C15.4689 27.7154 17.6227 29.8475 17.6227 32.5607C17.6227 32.7546 17.6227 32.9485 17.6227 33.1421H28.5877C28.3921 32.6578 28.3921 32.27 28.3921 31.8825H24.7696V31.1071H28.3921C28.4899 30.7196 28.5877 30.3318 28.6858 29.9443H24.8675L24.1822 29.6536C21.1472 28.103 18.6018 25.9711 17.1332 23.5484L16.5458 22.4825C16.4479 22.1917 16.35 21.9979 16.2521 21.7073V21.5134C16.1542 18.3155 16.8395 15.0207 18.3081 12.1135L18.9934 10.6599L24.4758 11.2414C25.6507 11.3382 26.7276 12.1135 27.2171 13.2763L27.8044 14.5361C29.1751 17.6372 30.2521 20.7382 31.1332 23.9361L30.3499 22.3855C30.0562 21.8041 29.371 21.6103 28.7836 21.8041L27.7066 19.6722L26.6297 20.1567L28.1962 23.2577L29.371 25.7773L25.4549 27.134L24.4758 23.4515C24.378 23.0639 23.9864 22.6763 23.4969 22.6763L17.329 22.0949C17.2311 22.0949 17.1332 22.1917 17.2311 22.2887L17.7206 23.0639C19.0913 25.2928 21.5388 27.4247 24.378 28.8783L24.8675 29.169C24.8675 29.169 28.7836 29.169 28.8814 29.169C29.8606 27.5215 31.6228 26.4556 33.6787 26.4556V25.8742L34.8535 25.3896V26.5526H35.0493ZM16.35 26.068H15.1752C15.0772 26.068 14.9794 25.9711 14.9794 25.8742V23.9361C14.9794 23.8392 15.0772 23.7423 15.1752 23.7423H16.35C16.4479 23.7423 16.5458 23.8392 16.5458 23.9361V25.8742C16.5458 25.9711 16.4479 26.068 16.35 26.068Z" fill="white"/>
<path d="M6.75488 35.1768V33.9171H7.92975C8.02759 34.4018 8.32136 34.7893 8.51712 35.1768H6.75488Z" fill="white"/>
<path d="M28.7832 33.9171C28.9791 34.4018 29.1747 34.7893 29.4684 35.1768H16.7412C17.035 34.7893 17.2307 34.4018 17.3287 33.9171H28.7832Z" fill="white"/>
<path d="M24.5737 19.1876L28.0983 17.4432C28.2939 17.3463 28.5876 17.4432 28.7835 17.6371C28.8813 17.8309 28.7835 18.1216 28.5876 18.3154L24.9653 20.0598C24.7695 20.1566 24.4758 20.0598 24.28 19.8659C24.0842 19.6721 24.28 19.2844 24.5737 19.1876Z" fill="white"/>
<path d="M33.8742 36.5336C36.5175 36.5336 38.5734 34.4018 38.5734 31.8822C38.5734 29.2655 36.4197 27.2306 33.8742 27.2306C31.3287 27.2306 29.1748 29.3626 29.1748 31.8822C29.1748 34.4986 31.2309 36.5336 33.8742 36.5336ZM30.8391 31.8822C30.8391 30.2347 32.2098 28.878 33.8742 28.878C35.5386 28.878 36.9091 30.2347 36.9091 31.8822C36.9091 33.5297 35.5386 34.8862 33.8742 34.8862C32.2098 34.8862 30.8391 33.5297 30.8391 31.8822Z" fill="white"/>
<path d="M18.8953 15.602C19.1889 15.602 19.4827 15.8928 19.4827 16.1836L19.7764 20.3505C19.7764 20.4474 19.8743 20.5443 19.9721 20.6412L23.4967 21.0289C23.7903 21.0289 23.9862 21.3196 23.9862 21.6103C23.9862 21.901 23.6924 22.1917 23.3987 22.1917H23.3009L18.7973 21.6103C18.6995 21.6103 18.6016 21.5134 18.6016 21.3196L18.21 16.1836C18.21 15.8928 18.5036 15.602 18.8953 15.602Z" fill="white"/>
<path d="M34.266 9.78767V19.0907C34.266 19.3815 34.0701 19.5753 33.7764 19.5753C33.4827 19.5753 33.2871 19.3815 33.2871 19.0907V9.78767C33.2871 9.49699 33.4827 9.30318 33.7764 9.30318C34.0701 9.30318 34.266 9.49699 34.266 9.78767Z" fill="white"/>
<path d="M33.874 33.0453C34.5228 33.0453 35.0488 32.5246 35.0488 31.8825C35.0488 31.2403 34.5228 30.7197 33.874 30.7197C33.225 30.7197 32.6992 31.2403 32.6992 31.8825C32.6992 32.5246 33.225 33.0453 33.874 33.0453Z" fill="white"/>
<path d="M12.6295 36.5337C14.8812 36.5337 16.7414 34.6927 16.7414 32.4638C16.7414 30.235 14.8812 28.3936 12.6295 28.3936C10.3777 28.3936 8.51758 30.235 8.51758 32.4638C8.51758 34.6927 10.3777 36.5337 12.6295 36.5337ZM12.6295 34.8863C11.2588 34.8863 10.1818 33.8206 10.1818 32.4638C10.1818 31.1071 11.2588 30.041 12.6295 30.041C14 30.041 15.0769 31.1071 15.0769 32.4638C15.0769 33.8206 14 34.8863 12.6295 34.8863Z" fill="white"/>
<path d="M12.6299 33.6267C13.2788 33.6267 13.8048 33.106 13.8048 32.4638C13.8048 31.8216 13.2788 31.301 12.6299 31.301C11.9811 31.301 11.4551 31.8216 11.4551 32.4638C11.4551 33.106 11.9811 33.6267 12.6299 33.6267Z" fill="white"/>
</g>
</svg>
