<svg width="222" height="76" viewBox="0 0 222 76" fill="none" xmlns="http://www.w3.org/2000/svg">
<g clip-path="url(#clip0_338_794)">
<mask id="mask0_338_794" style="mask-type:luminance" maskUnits="userSpaceOnUse" x="0" y="0" width="222" height="76">
<path d="M222 0H0V76H222V0Z" fill="white"/>
</mask>
<g mask="url(#mask0_338_794)">
<path d="M76.6908 37.8985C76.6908 58.9193 59.6142 75.7969 38.3454 75.7969C17.0769 75.7969 0 58.9193 0 37.8985C0 16.8779 17.0769 0 38.3454 0C59.6142 0 76.6908 16.8779 76.6908 37.8985Z" fill="#EA262A"/>
<path d="M79.9517 19.9466C81.5044 19.9466 82.9016 20.2535 83.9881 21.0207C85.075 21.7879 85.851 22.8619 86.4723 24.2429C86.938 25.4703 87.0931 26.6978 86.938 28.0787C86.7824 29.6131 86.3167 30.994 85.3852 32.3749C84.4538 33.6023 83.3673 34.6764 82.1252 35.2902C80.728 35.9039 79.1757 36.2108 77.6231 36.2108H77.3129L76.6916 38.6658H72.1895L72.8107 36.2108C71.4131 36.2108 70.1716 35.9039 68.9295 35.2902C67.843 34.5231 67.0666 33.6023 66.4457 32.3749C65.8245 31.1474 65.6694 29.7666 65.8245 28.3856C65.98 26.8513 66.4457 25.3168 67.3773 24.0894C68.3087 22.8619 69.3952 21.7879 70.7923 21.0207C72.1895 20.2535 73.5867 19.9466 75.2945 19.9466H75.605L76.2259 17.4917H80.573L79.9517 19.9466ZM70.3266 29.7666C70.4817 30.5337 70.6373 31.1474 71.103 31.6078C71.5687 32.068 72.1895 32.3749 72.9659 32.3749H73.4316L75.1394 23.6291C74.0524 23.6291 73.1209 23.936 72.1895 24.7031C71.4131 25.3168 70.7923 26.2376 70.4817 27.465C70.3266 28.2321 70.1716 28.9993 70.3266 29.7666ZM79.4859 23.6291L77.7786 32.3749C78.71 32.3749 79.6416 32.068 80.4174 31.6078C81.1938 31.1474 81.6595 30.3802 82.1252 29.4597C82.5909 28.539 82.5909 27.465 82.5909 26.3909C82.5909 25.6237 82.2803 24.8566 81.8145 24.3962C81.3488 23.936 80.728 23.6291 79.9517 23.4756L79.4859 23.6291Z" fill="white"/>
<path d="M95.9417 38.0522C93.9233 38.0522 92.2155 37.2851 90.9738 36.0575C89.7318 34.83 88.9554 32.9888 88.8004 30.8407C88.6452 29.7667 88.8004 28.5392 89.1109 27.0049C89.4211 25.4705 89.8869 24.243 90.5081 23.0155C91.129 21.788 92.0604 20.7141 92.9918 19.9468C94.6997 18.5659 96.5625 17.9521 98.8911 17.9521C100.288 17.9521 101.375 18.259 102.462 18.8727C103.548 19.4865 104.325 20.2537 104.946 21.4812C105.567 22.5553 105.877 23.7827 106.032 25.317C106.032 26.3911 106.032 27.4651 105.877 28.6927C105.722 29.9202 105.256 31.1476 104.79 32.3751C104.325 33.6025 103.548 34.5231 102.772 35.4437C101.996 36.3643 100.91 36.9782 99.8226 37.5918C98.5809 37.8988 97.3388 38.2057 95.9417 38.0522ZM101.22 25.1637C101.065 22.8621 100.288 21.788 98.5809 21.6347C97.3388 21.6347 96.2519 22.0949 95.3204 23.169C94.5445 24.243 93.9233 25.7774 93.6131 27.9255C93.4576 29.1529 93.3024 30.227 93.4576 30.9941C93.6131 33.2957 94.389 34.5231 96.0968 34.5231C97.1833 34.5231 98.1152 34.2163 98.8911 33.2957C99.6674 32.3751 100.288 31.301 100.599 29.6133C101.065 27.9255 101.22 26.5445 101.22 25.1637Z" fill="white"/>
<path d="M112.398 31.1474L111.156 37.8986H106.498L109.914 18.1055H117.055C119.228 18.1055 120.936 18.7192 122.333 19.9467C123.575 21.1741 124.196 22.7085 124.041 24.7031C123.886 26.0841 123.575 27.1582 122.799 28.0788C122.023 28.9994 121.091 29.7666 119.849 30.3803C118.607 30.8406 117.21 31.1474 115.813 31.1474H112.398ZM113.018 27.4651H115.813C117.055 27.4651 117.831 27.0047 118.452 26.391C119.073 25.6237 119.383 24.7031 119.228 23.6292C119.228 23.0154 118.918 22.7085 118.607 22.4016C118.297 22.0947 117.831 21.9414 117.21 21.788H113.95L113.018 27.4651Z" fill="white"/>
<path d="M132.735 30.0735H130.406L129.009 37.8986H124.352L127.767 18.1055H132.424L131.027 25.6237H132.735L137.703 18.1055H143.602L136.616 27.3116L140.652 37.7452H135.374L132.735 30.0735Z" fill="white"/>
<path d="M161.92 18.1055L158.35 37.8986H153.692L156.487 21.9414H152.141L150.278 30.0735C149.656 32.8353 148.725 34.83 147.482 36.0574C146.241 37.2849 144.688 37.8986 142.67 37.8986H140.963L141.584 34.2161H142.049C143.136 34.0627 144.067 33.6025 144.688 32.6818C145.464 31.7612 145.931 30.2268 146.241 28.0788L146.552 26.6978L148.259 18.4123H161.92V18.1055Z" fill="white"/>
<path d="M176.203 18.1055H181.015L177.6 37.8986H172.943L175.117 25.7772L166.113 37.8986H161.3L164.715 18.1055H169.372L167.199 30.2268L176.203 18.1055Z" fill="white"/>
<path d="M195.764 19.9466C197.316 19.9466 198.714 20.2535 199.801 21.0207C200.887 21.7879 201.663 22.8619 202.284 24.2429C202.75 25.4703 202.906 26.6978 202.75 28.0787C202.595 29.6131 202.13 30.994 201.198 32.3749C200.266 33.6023 199.18 34.6764 197.938 35.2902C196.541 35.9039 195.144 36.2108 193.591 36.2108H193.281L192.659 38.6658H188.157L188.778 36.2108C187.381 36.2108 186.139 35.9039 184.896 35.2902C183.81 34.5231 183.034 33.6023 182.413 32.3749C181.792 31.1474 181.637 29.7666 181.792 28.3856C181.948 26.8513 182.413 25.3168 183.345 24.0894C184.276 22.8619 185.363 21.7879 186.76 21.0207C188.157 20.2535 189.555 19.9466 191.262 19.9466H191.573L192.194 17.4917H196.541L195.764 19.9466ZM186.139 29.7666C186.294 30.5337 186.449 31.1474 186.916 31.6078C187.381 32.068 188.002 32.3749 188.778 32.3749H189.244L190.952 23.6291C189.864 23.6291 188.934 23.936 188.002 24.7031C187.226 25.3168 186.605 26.2376 186.294 27.465C186.139 28.2321 185.984 28.9993 186.139 29.7666ZM195.298 23.6291L193.591 32.3749C194.521 32.3749 195.453 32.068 196.23 31.6078C197.006 31.1474 197.471 30.3802 197.938 29.4597C198.403 28.539 198.403 27.465 198.403 26.3909C198.403 25.6237 198.092 24.8566 197.627 24.3962C197.162 23.936 196.541 23.6291 195.764 23.4756L195.298 23.6291Z" fill="white"/>
<path d="M221.535 21.9413H215.791L212.841 37.8986H208.184L210.978 21.9413H205.234L205.856 18.2588H222.001L221.535 21.9413Z" fill="white"/>
<path d="M107.895 52.168C107.274 52.4746 106.343 52.6284 105.101 52.6284C102.306 52.6284 100.443 50.9404 100.443 48.1786C100.443 45.8768 101.53 44.0356 103.082 42.9617C104.169 42.1946 105.411 41.8877 106.964 41.8877C108.05 41.8877 108.981 42.1946 109.292 42.3479L108.671 44.1894C108.361 44.0356 107.74 43.8823 106.808 43.8823C105.877 43.8823 105.101 44.1894 104.479 44.6496C103.548 45.4165 103.082 46.4908 103.082 48.025C103.082 49.7128 104.014 50.7867 105.877 50.7867C106.653 50.7867 107.274 50.6334 107.895 50.4802V52.168Z" fill="white"/>
<path d="M118.917 48.1789H115.192L114.726 50.6337H118.917L118.607 52.4749H112.242L114.26 42.0415H120.47L120.004 44.0359H115.968L115.502 46.1841H119.228L118.917 48.1789Z" fill="white"/>
<path d="M125.282 42.3484C125.904 42.1949 126.99 42.0415 128.077 42.0415C129.008 42.0415 130.095 42.1949 130.871 42.8086C131.647 43.2691 131.958 44.0359 131.958 44.9565C131.958 46.3377 131.338 47.2583 130.561 47.872C129.629 48.4856 128.543 48.7925 127.146 48.7925C126.835 48.7925 126.525 48.7925 126.214 48.7925L125.438 52.4749H123.264L125.282 42.3484ZM126.525 46.9514C126.835 46.9514 126.99 46.9514 127.456 46.9514C128.853 46.9514 129.629 46.0308 129.629 45.1102C129.629 44.0359 128.853 43.7293 128.077 43.7293C127.611 43.7293 127.301 43.7293 127.146 43.8826L126.525 46.9514Z" fill="white"/>
<path d="M137.082 42.3484C137.857 42.1949 138.789 42.0415 139.875 42.0415C140.962 42.0415 141.739 42.1949 142.515 42.6552C143.29 42.962 143.757 43.7293 143.757 44.4962C143.757 45.8775 142.825 46.6444 141.583 46.9514C142.669 47.2583 143.29 48.0253 143.29 49.2529C143.29 50.3268 142.669 51.2477 141.893 51.7081C140.962 52.3217 139.721 52.4749 137.857 52.4749C136.615 52.4749 135.685 52.4749 135.218 52.3216L137.082 42.3484ZM137.703 50.7875C138.012 50.7875 138.168 50.7875 138.633 50.7875C139.875 50.7875 140.962 50.3268 140.962 49.0995C140.962 48.0253 140.031 47.7187 139.099 47.7187H138.168L137.703 50.7875ZM138.633 46.3378H139.41C140.651 46.3378 141.428 45.8775 141.428 44.9565C141.428 44.1896 140.807 43.8826 139.875 43.8826C139.41 43.8826 139.099 43.8826 138.944 43.8826L138.633 46.3378Z" fill="white"/>
<path d="M151.518 42.1948L150.897 45.4167C150.587 47.1047 150.276 48.4855 149.811 50.0202C150.587 48.6393 151.364 47.5649 152.14 46.4911L154.935 42.3483H157.418L155.4 52.7819H153.226L153.847 49.5598C154.158 48.0253 154.312 46.7981 154.779 45.4167C154.158 46.6443 153.382 47.872 152.45 48.9459L149.811 52.6286H147.172L149.19 42.1948H151.518Z" fill="white"/>
<path d="M168.596 52.168C167.975 52.4746 167.043 52.6284 165.802 52.6284C163.007 52.6284 161.144 50.9404 161.144 48.1786C161.144 45.8768 162.231 44.0356 163.784 42.9617C164.87 42.1946 166.112 41.8877 167.664 41.8877C168.752 41.8877 169.682 42.1946 169.993 42.3479L169.373 44.1894C169.062 44.0356 168.441 43.8823 167.509 43.8823C166.578 43.8823 165.802 44.1894 165.181 44.6496C164.249 45.4165 163.784 46.4908 163.784 48.025C163.784 49.7128 164.714 50.7867 166.578 50.7867C167.355 50.7867 167.975 50.6334 168.596 50.4802V52.168Z" fill="white"/>
<path d="M38.9665 29.7664L44.5553 27.0045C44.8655 26.8511 45.3313 27.0045 45.6419 27.3114C45.9526 27.6182 45.6419 28.0786 45.3313 28.3855L39.7426 31.1473C39.4322 31.3007 38.9665 31.1473 38.6559 30.8404C38.3454 30.5335 38.5006 30.0733 38.9665 29.7664ZM29.0308 25.777C29.0308 25.3168 29.3412 24.8564 29.9622 24.8564C30.4279 24.8564 30.8937 25.1633 30.8937 25.777L31.3594 32.6816L37.2587 33.2954C37.7244 33.2954 38.1902 33.7557 38.0349 34.3694C38.0349 34.8298 37.5692 35.1366 37.1034 35.1366H36.9481L29.4965 34.216L29.0308 25.777Z" fill="white"/>
<path d="M55.5774 40.3535V42.1947C54.9562 42.0412 54.3353 42.0412 53.7146 42.0412V40.9673L55.5774 40.3535Z" fill="white"/>
<path d="M60.2354 44.9568V33.9097H62.564V52.4752C62.564 53.3958 63.3403 54.1632 64.2717 54.1632H73.8968C76.536 54.1632 79.3304 54.3164 81.9697 54.6234L92.9919 55.6974C93.1474 55.6974 93.1474 56.0044 92.9919 56.0044H62.564H61.0117H60.2354C61.4774 54.4702 62.2533 52.629 62.2533 50.4808C62.4088 48.3326 61.6324 46.4914 60.2354 44.9568Z" fill="white"/>
<path d="M55.5782 42.0417C56.9754 42.3486 58.2175 42.9623 59.304 43.8829V11.8149H55.5782V12.889H49.9895C49.5233 12.889 49.2132 13.1959 49.2132 13.6562C49.2132 14.1165 49.5233 14.2699 49.9895 14.2699H55.5782V37.4386L51.3868 38.973L51.0761 37.899C49.5233 32.5287 47.8161 27.312 45.4874 22.2485L44.5559 20.2539C43.6242 17.9524 41.4509 16.418 38.9669 16.2645L24.6844 14.8837C24.2187 14.8837 23.9082 15.1906 23.9082 15.4974C23.9082 15.9577 24.2187 16.2645 24.5291 16.2645L27.3236 16.5714L26.7026 17.9524C24.0634 23.1692 22.8215 28.9997 23.2872 34.8302L16.4565 34.2165C15.3697 34.0631 14.283 34.8302 13.8173 35.7508L12.4201 39.2798C11.3334 41.8883 10.8677 44.6502 10.8677 47.412V52.4752H12.4201C12.4201 52.1687 12.4201 51.8616 12.4201 51.5546C12.4201 47.2587 15.8355 43.8829 20.1823 43.8829C24.5291 43.8829 27.9446 47.2587 27.9446 51.5546C27.9446 51.8616 27.9446 52.1687 27.9446 52.4752H45.3319C45.0218 51.7083 45.0218 51.0943 45.0218 50.4807H39.2775V49.2532H45.0218C45.1768 48.6395 45.3319 48.0256 45.4874 47.412H39.4327L38.346 46.9517C33.5334 44.4965 29.4971 41.1212 27.1683 37.2851L26.2369 35.5974C26.0816 35.1371 25.9264 34.8302 25.7712 34.37V34.0631C25.6159 28.9997 26.7026 23.7829 29.0314 19.1798L30.118 16.8783L38.8116 17.799C40.6747 17.9524 42.3823 19.1798 43.1586 21.021L44.0899 23.0157C46.2633 27.9257 47.9711 32.8357 49.3683 37.899L48.1262 35.444C47.6605 34.5234 46.574 34.2165 45.6425 34.5234L43.9347 31.1478L42.2271 31.9149L44.7111 36.8249L46.574 40.8142L40.3641 42.9623L38.8116 37.1318C38.6565 36.518 38.0355 35.9043 37.2593 35.9043L27.4789 34.9837C27.3236 34.9837 27.1683 35.1371 27.3236 35.2906L28.0998 36.518C30.2733 40.0471 34.1544 43.4226 38.6565 45.7241L39.4327 46.1844C39.4327 46.1844 45.6425 46.1844 45.7976 46.1844C47.3504 43.576 50.1447 41.8883 53.4047 41.8883V40.9677L55.2676 40.2004V42.0417H55.5782ZM25.9264 41.2745H24.0634C23.9082 41.2745 23.753 41.1212 23.753 40.9677V37.899C23.753 37.7455 23.9082 37.5921 24.0634 37.5921H25.9264C26.0816 37.5921 26.2369 37.7455 26.2369 37.899V40.9677C26.2369 41.1212 26.0816 41.2745 25.9264 41.2745Z" fill="white"/>
<path d="M10.7114 55.6966V53.7021H12.5744C12.7296 54.4695 13.1954 55.0831 13.5058 55.6966H10.7114Z" fill="white"/>
<path d="M45.642 53.7021C45.9527 54.4695 46.2629 55.0831 46.7286 55.6966H26.5469C27.0127 55.0831 27.3231 54.4695 27.4784 53.7021H45.642Z" fill="white"/>
<path d="M38.9669 30.3802L44.5559 27.6183C44.8662 27.4649 45.3319 27.6183 45.6424 27.9253C45.7976 28.2321 45.6424 28.6924 45.3319 28.9992L39.588 31.7611C39.2774 31.9145 38.8117 31.7611 38.5012 31.4543C38.1908 31.1474 38.5012 30.5336 38.9669 30.3802Z" fill="white"/>
<path d="M53.7149 57.845C57.9064 57.845 61.1664 54.4696 61.1664 50.4804C61.1664 46.3373 57.7513 43.1152 53.7149 43.1152C49.6785 43.1152 46.2629 46.491 46.2629 50.4804C46.2629 54.623 49.5233 57.845 53.7149 57.845ZM48.9021 50.4804C48.9021 47.8718 51.0756 45.7237 53.7149 45.7237C56.3542 45.7237 58.5273 47.8718 58.5273 50.4804C58.5273 53.0888 56.3542 55.2366 53.7149 55.2366C51.0756 55.2366 48.9021 53.0888 48.9021 50.4804Z" fill="white"/>
<path d="M29.9624 24.7031C30.4281 24.7031 30.8939 25.1635 30.8939 25.6238L31.3596 32.2215C31.3596 32.3749 31.5149 32.5284 31.67 32.6818L37.2589 33.2956C37.7246 33.2956 38.0352 33.7558 38.0352 34.2162C38.0352 34.6764 37.5694 35.1368 37.1037 35.1368H36.9485L29.8071 34.2162C29.652 34.2162 29.4967 34.0627 29.4967 33.7558L28.8757 25.6238C28.8757 25.1635 29.3414 24.7031 29.9624 24.7031Z" fill="white"/>
<path d="M54.3362 15.4971V30.2269C54.3362 30.6872 54.0255 30.9941 53.5598 30.9941C53.0941 30.9941 52.7839 30.6872 52.7839 30.2269V15.4971C52.7839 15.0368 53.0941 14.73 53.5598 14.73C54.0255 14.73 54.3362 15.0368 54.3362 15.4971Z" fill="white"/>
<path d="M53.7145 52.3219C54.7432 52.3219 55.5774 51.4975 55.5774 50.4807C55.5774 49.4639 54.7432 48.6396 53.7145 48.6396C52.6853 48.6396 51.8516 49.4639 51.8516 50.4807C51.8516 51.4975 52.6853 52.3219 53.7145 52.3219Z" fill="white"/>
<path d="M20.0266 57.8451C23.5972 57.8451 26.5469 54.9301 26.5469 51.4011C26.5469 47.8721 23.5972 44.9565 20.0266 44.9565C16.4559 44.9565 13.5063 47.8721 13.5063 51.4011C13.5063 54.9301 16.4559 57.8451 20.0266 57.8451ZM20.0266 55.2367C17.8532 55.2367 16.1454 53.5493 16.1454 51.4011C16.1454 49.2529 17.8532 47.565 20.0266 47.565C22.2 47.565 23.9076 49.2529 23.9076 51.4011C23.9076 53.5493 22.2 55.2367 20.0266 55.2367Z" fill="white"/>
<path d="M20.0275 53.2424C21.0564 53.2424 21.8905 52.418 21.8905 51.4013C21.8905 50.3845 21.0564 49.5601 20.0275 49.5601C18.9986 49.5601 18.1646 50.3845 18.1646 51.4013C18.1646 52.418 18.9986 53.2424 20.0275 53.2424Z" fill="white"/>
</g>
</g>
<defs>
<clipPath id="clip0_338_794">
<rect width="222" height="76" fill="white"/>
</clipPath>
</defs>
</svg>
